<svg width="29" height="31" viewBox="0 0 29 31" fill="none" xmlns="http://www.w3.org/2000/svg">
<path d="M14.5 15.5C18.297 15.5 21.375 12.422 21.375 8.625C21.375 4.82804 18.297 1.75 14.5 1.75C10.703 1.75 7.625 4.82804 7.625 8.625C7.625 12.422 10.703 15.5 14.5 15.5Z" stroke="#878787" stroke-width="3.33333"/>
<path d="M21.375 18.25H21.859C22.8642 18.2503 23.8347 18.6176 24.5882 19.283C25.3417 19.9484 25.8263 20.866 25.951 21.8635L26.4886 26.159C26.5369 26.546 26.5024 26.9388 26.3874 27.3114C26.2723 27.684 26.0793 28.0279 25.8212 28.3202C25.5631 28.6125 25.2457 28.8466 24.8902 29.0069C24.5347 29.1672 24.1492 29.2501 23.7592 29.25H5.24071C4.85074 29.2501 4.4652 29.1672 4.1097 29.0069C3.7542 28.8466 3.43685 28.6125 3.17873 28.3202C2.9206 28.0279 2.72761 27.684 2.61254 27.3114C2.49748 26.9388 2.46298 26.546 2.51134 26.159L3.04759 21.8635C3.17229 20.8656 3.65728 19.9475 4.41136 19.2821C5.16543 18.6167 6.13663 18.2496 7.14234 18.25H7.62496" stroke="#878787" stroke-width="3.33333" stroke-linecap="round" stroke-linejoin="round"/>
</svg>
