<svg width="34" height="36" viewBox="0 0 34 36" fill="none" xmlns="http://www.w3.org/2000/svg">
<path d="M9.5 11.75V9.25C9.5 7.26088 10.2902 5.35322 11.6967 3.9467C13.1032 2.54018 15.0109 1.75 17 1.75V1.75C18.9891 1.75 20.8968 2.54018 22.3033 3.9467C23.7098 5.35322 24.5 7.26088 24.5 9.25V11.75M3.25 11.75C2.91848 11.75 2.60054 11.8817 2.36612 12.1161C2.1317 12.3505 2 12.6685 2 13V29.875C2 32.2375 4.0125 34.25 6.375 34.25H27.625C29.9875 34.25 32 32.3352 32 29.9727V13C32 12.6685 31.8683 12.3505 31.6339 12.1161C31.3995 11.8817 31.0815 11.75 30.75 11.75H3.25Z" stroke="black" stroke-width="2.9375" stroke-linecap="round" stroke-linejoin="round"/>
<path d="M9.5 15.5V16.75C9.5 18.7391 10.2902 20.6468 11.6967 22.0533C13.1032 23.4598 15.0109 24.25 17 24.25C18.9891 24.25 20.8968 23.4598 22.3033 22.0533C23.7098 20.6468 24.5 18.7391 24.5 16.75V15.5" stroke="black" stroke-width="2.9375" stroke-linecap="round" stroke-linejoin="round"/>
</svg>
