<svg width="30" height="29" viewBox="0 0 30 29" fill="none" xmlns="http://www.w3.org/2000/svg">
<path d="M12.2368 14.5C11.8704 14.5 11.519 14.6458 11.2599 14.9052C11.0008 15.1647 10.8552 15.5166 10.8552 15.8835C10.8552 16.2505 11.0008 16.6024 11.2599 16.8619C11.519 17.1213 11.8704 17.2671 12.2368 17.2671H17.7631C18.1295 17.2671 18.4809 17.1213 18.74 16.8619C18.9991 16.6024 19.1447 16.2505 19.1447 15.8835C19.1447 15.5166 18.9991 15.1647 18.74 14.9052C18.4809 14.6458 18.1295 14.5 17.7631 14.5H12.2368Z" fill="black"/>
<path fill-rule="evenodd" clip-rule="evenodd" d="M3.94735 0.66452C2.8481 0.66452 1.79387 1.10182 1.01658 1.88021C0.239289 2.65861 -0.197388 3.71434 -0.197388 4.81516V24.1848C-0.197388 25.2856 0.239289 26.3414 1.01658 27.1198C1.79387 27.8982 2.8481 28.3355 3.94735 28.3355H26.0526C27.1519 28.3355 28.2061 27.8982 28.9834 27.1198C29.7607 26.3414 30.1973 25.2856 30.1973 24.1848V4.81516C30.1973 3.71434 29.7607 2.65861 28.9834 1.88021C28.2061 1.10182 27.1519 0.66452 26.0526 0.66452H3.94735ZM26.0526 3.43161H3.94735C3.58093 3.43161 3.22952 3.57738 2.97042 3.83685C2.71133 4.09631 2.56577 4.44822 2.56577 4.81516V8.9658H27.4342V4.81516C27.4342 4.44822 27.2886 4.09631 27.0295 3.83685C26.7704 3.57738 26.419 3.43161 26.0526 3.43161ZM2.56577 24.1848V11.7329H27.4342V24.1848C27.4342 24.5518 27.2886 24.9037 27.0295 25.1631C26.7704 25.4226 26.419 25.5684 26.0526 25.5684H3.94735C3.58093 25.5684 3.22952 25.4226 2.97042 25.1631C2.71133 24.9037 2.56577 24.5518 2.56577 24.1848Z" fill="black"/>
</svg>
