<svg width="30" height="31" viewBox="0 0 30 31" fill="none" xmlns="http://www.w3.org/2000/svg">
<path d="M28.8889 27.0278V16.1583C28.8889 15.4021 28.7346 14.6538 28.4354 13.9593C28.1361 13.2649 27.6983 12.6388 27.1486 12.1194L16.9083 2.44166C16.3926 1.95406 15.7097 1.68237 15 1.68237C14.2902 1.68237 13.6074 1.95406 13.0916 2.44166L2.85136 12.1194C2.30167 12.6388 1.8638 13.2649 1.56455 13.9593C1.26531 14.6538 1.111 15.4021 1.11108 16.1583V27.0278C1.11108 27.7645 1.40374 28.471 1.92468 28.992C2.44561 29.5129 3.15215 29.8055 3.88886 29.8055H26.1111C26.8478 29.8055 27.5543 29.5129 28.0753 28.992C28.5962 28.471 28.8889 27.7645 28.8889 27.0278Z" stroke="#878787" stroke-width="3.33333" stroke-linecap="round" stroke-linejoin="round"/>
</svg>
