<svg width="30" height="31" viewBox="0 0 30 31" fill="none" xmlns="http://www.w3.org/2000/svg">
<path d="M28.8889 27.0278V16.1583C28.889 15.4021 28.7347 14.6538 28.4355 13.9593C28.1362 13.2649 27.6983 12.6388 27.1486 12.1194L16.9084 2.44166C16.3926 1.95406 15.7098 1.68237 15 1.68237C14.2903 1.68237 13.6074 1.95406 13.0917 2.44166L2.85142 12.1194C2.30173 12.6388 1.86386 13.2649 1.56461 13.9593C1.26537 14.6538 1.11106 15.4021 1.11115 16.1583V27.0278C1.11115 27.7645 1.4038 28.471 1.92474 28.992C2.44567 29.5129 3.15221 29.8055 3.88892 29.8055H26.1111C26.8479 29.8055 27.5544 29.5129 28.0753 28.992C28.5963 28.471 28.8889 27.7645 28.8889 27.0278Z" stroke="black" stroke-width="3.33333" stroke-linecap="round" stroke-linejoin="round"/>
</svg>
