<svg width="64" height="24" viewBox="0 0 64 24" fill="none" xmlns="http://www.w3.org/2000/svg">
<path d="M64 0.800003L17.1787 20.736C13.296 22.3787 10.0347 23.2027 7.39733 23.2027C4.41066 23.2027 2.24266 22.1573 0.898659 20.064C0.0533252 18.72 -0.194675 17.016 0.151992 14.9493C0.498658 12.8827 1.42133 10.6827 2.91466 8.34134C4.15999 6.448 6.19999 3.96 9.03999 0.874669C8.0767 2.39111 7.37031 4.05616 6.94933 5.80267C6.20266 8.98934 6.87466 11.328 8.96533 12.8213C9.95999 13.5173 11.328 13.8667 13.072 13.8667C14.464 13.8667 16.032 13.6427 17.776 13.1947L64 0.800003Z" fill="black"/>
</svg>
