<svg width="64" height="50" viewBox="0 0 64 50" fill="none" xmlns="http://www.w3.org/2000/svg">
<path d="M63.5867 1.02133C62.4747 -0.400005 60.5307 0.738662 59.6747 1.23466C53.584 4.824 52.6853 11.144 50.5627 14.7733C48.8933 17.68 46.1573 19.8133 43.6827 19.9787C41.8533 20.1093 39.8693 19.7547 37.9013 18.8987C33.0827 16.816 30.488 14.12 29.856 13.6453C28.5573 12.6587 18.576 2.93866 10.4427 2.54133C10.4427 2.54133 9.45068 0.541329 9.20268 0.506662C8.61068 0.439996 8.00268 1.70933 7.56001 1.84266C7.16001 1.984 6.45868 0.477329 6.05334 0.543996C5.64534 0.597329 5.24801 2.10666 4.45334 2.88266C3.86668 3.45066 3.15734 3.416 2.75468 4.11733C2.61601 4.37333 2.66401 4.824 2.50668 5.23733C2.16801 6.09066 1.03734 6.18133 1.02668 7.09599C1.02668 8.112 1.97868 8.30666 2.81068 9.016C3.47201 9.58133 3.51734 9.98133 4.28801 10.2453C4.97601 10.48 5.97334 9.74666 6.85868 10.0107C7.59734 10.2267 8.30668 10.384 8.46401 11.1387C8.60801 11.8213 8.46401 12.8933 7.55734 12.7733C7.25868 12.7333 5.96268 12.3093 4.36268 12.48C2.42934 12.6853 0.221343 13.304 0.00534273 15.44C-0.103991 16.632 1.37601 18.0267 2.81868 17.7493C3.80801 17.56 3.34134 16.4 3.88268 15.84C4.59468 15.12 8.60801 18.3573 12.3413 18.3573C13.9227 18.3573 15.0907 17.9573 16.2533 16.744C16.36 16.6667 16.5013 16.472 16.6667 16.4507C16.8521 16.4988 17.0279 16.5781 17.1867 16.6853C20.2027 19.0773 22.4773 23.8853 33.5333 23.9413C35.0853 23.96 36.8667 24.6853 38.3227 26.0133C39.6027 27.168 40.36 29.0133 41.088 30.88C42.2027 33.688 44.184 36.3973 47.2 39.4213C47.36 39.6027 49.84 41.5013 50.0267 41.6427C50.0587 41.6693 50.2507 42.088 50.168 42.3227C50.1147 44.1627 49.84 49.4427 53.808 49.664C54.784 49.7173 54.5413 49.048 54.5413 48.5707C54.528 47.6613 54.368 46.744 54.8427 45.7973C55.5173 44.5227 53.44 43.9067 53.4853 41.1147C53.536 39.024 51.7653 39.3787 50.8613 37.7813C50.3547 36.8667 49.88 36.3627 49.928 35.2587C50.1227 28.912 48.5493 24.7307 47.7813 23.72C47.176 22.936 46.6533 22.6453 47.2293 22.28C50.536 20.1067 51.296 18.0827 51.296 18.0827C53.056 13.9733 54.6453 10.2293 56.8293 8.56266C57.272 8.24266 58.4 7.38933 59.1013 7.06933C61.136 6.104 62.2293 5.528 62.8027 4.968C63.752 4.06933 64.496 2.16 63.5867 1.02133Z" fill="black"/>
</svg>
