<svg width="64" height="18" viewBox="0 0 64 18" fill="none" xmlns="http://www.w3.org/2000/svg">
<path d="M39.976 7.61334C47.3173 4.68001 51.888 2.99468 64 0.0400085C57.4213 0.474675 42.8747 1.47201 32.848 3.42934L39.976 7.61601V7.61334ZM17.1493 17.352H26.7493C28.6507 14.472 30.5413 13.0693 32.744 11.5093C31.0711 10.8625 29.3892 10.2393 27.6987 9.64001C21.5733 12.344 18.1653 15.9733 17.1573 17.352H17.1493ZM19.048 6.87734C10.488 9.93601 5.73067 13.2587 2.51733 17.352H13.1173C14.1493 15.9147 18.0827 11.7707 25.472 8.88801C23.3449 8.17049 21.2021 7.5001 19.0453 6.87734H19.048ZM23.44 0.434675H0C23.632 4.70134 35.0213 10.1947 53.3333 17.96C51.768 16.7893 26.5307 1.92534 23.4427 0.434675" fill="black"/>
</svg>
